<?xml version="1.0" standalone="no"?>
<!DOCTYPE svg PUBLIC "-//W3C//DTD SVG 20010904//EN"
 "http://www.w3.org/TR/2001/REC-SVG-20010904/DTD/svg10.dtd">
<svg version="1.0" xmlns="http://www.w3.org/2000/svg"
 width="700.000000pt" height="700.000000pt" viewBox="0 0 700.000000 700.000000"
 preserveAspectRatio="xMidYMid meet">
<metadata>
Created by potrace 1.11, written by Peter Selinger 2001-2013
</metadata>
<g transform="translate(0.000000,700.000000) scale(0.100000,-0.100000)"
fill="#000000" stroke="none">
<path d="M1795 6061 c-53 -25 -81 -52 -105 -106 -19 -41 -20 -65 -20 -351 0
-330 4 -360 51 -417 75 -91 210 -101 299 -21 66 60 70 85 70 438 0 282 -2 315
-19 351 -50 108 -171 155 -276 106z"/>
<path d="M5096 6059 c-21 -11 -49 -32 -63 -47 -51 -55 -53 -70 -53 -416 0
-292 2 -325 19 -362 71 -156 281 -165 368 -17 l28 48 1 305 c1 168 -3 326 -8
351 -25 125 -180 198 -292 138z"/>
<path d="M1270 5448 c-114 -22 -218 -106 -273 -218 l-32 -65 -2 -1780 c-3
-1902 -4 -1836 46 -1933 32 -63 106 -131 181 -166 l65 -31 2245 0 2245 0 65
31 c71 33 150 105 179 163 54 104 51 -1 51 1910 l-1 1766 -22 66 c-38 112
-121 199 -229 241 -44 17 -77 21 -193 22 l-140 1 -2 -85 c-2 -116 -9 -164 -32
-208 -64 -124 -222 -178 -346 -117 -60 29 -73 39 -107 85 -38 51 -54 121 -53
232 l0 97 -1377 0 c-1054 0 -1378 -3 -1379 -12 0 -7 -1 -59 -3 -117 -2 -84 -7
-114 -25 -151 -57 -120 -182 -182 -306 -154 -70 16 -107 38 -153 90 -50 57
-66 114 -67 235 0 52 -4 98 -10 102 -13 10 -270 7 -325 -4z m4070 -845 c127
-33 230 -130 271 -255 l21 -68 1 -1142 c0 -629 -4 -1163 -8 -1188 -27 -161
-168 -298 -328 -318 -29 -4 -846 -7 -1817 -6 -1377 1 -1775 4 -1810 13 -140
39 -249 152 -281 288 -16 69 -14 2336 2 2395 37 140 143 246 279 281 83 21
3588 22 3670 0z"/>
<path d="M4430 3790 c-14 -4 -46 -20 -70 -36 -25 -16 -53 -33 -62 -39 -10 -5
-93 -57 -185 -115 -91 -58 -170 -106 -174 -108 -5 -2 -18 17 -30 43 -28 59
-98 137 -152 168 -105 61 -88 60 -722 61 l-580 2 -27 -27 c-17 -17 -28 -39
-29 -56 -4 -150 0 -849 5 -888 22 -156 156 -297 317 -334 27 -7 266 -11 615
-11 l571 0 23 25 c23 24 24 33 26 166 0 76 3 141 6 144 2 2 89 -49 194 -115
227 -144 256 -160 297 -165 47 -6 110 26 137 69 l23 38 -1 536 c0 525 0 538
-20 572 -33 56 -105 87 -162 70z"/>
</g>
</svg>
